<svg xmlns="http://www.w3.org/2000/svg" viewBox="105 110 288 266">
<path d="M0 0 C0.88728301 -0.00226556 1.77456601 -0.00453111 2.68873638 -0.00686532 C5.67360244 -0.01321549 8.65842321 -0.01237531 11.64329529 -0.0115509 C13.77839721 -0.0145417 15.91349858 -0.01794404 18.04859924 -0.02172852 C23.85622479 -0.03057926 29.66383562 -0.03290704 35.47146726 -0.0335443 C40.3128503 -0.03449231 45.15422989 -0.03816923 49.99561161 -0.0417164 C61.41154049 -0.04986449 72.82746149 -0.05230025 84.24339294 -0.05158997 C96.03872793 -0.05098857 107.83401728 -0.06155189 119.62934071 -0.07733363 C129.7423021 -0.09038467 139.85524852 -0.09577492 149.96821827 -0.09513456 C156.01458046 -0.09487892 162.06090209 -0.09776642 168.10725594 -0.10831261 C173.78955865 -0.11795308 179.47178164 -0.11810079 185.15408707 -0.11079597 C187.24473753 -0.10974517 189.33539285 -0.11214211 191.42603493 -0.11815643 C194.26947035 -0.1258095 197.11262582 -0.12127637 199.95605469 -0.11352539 C200.79251843 -0.11866895 201.62898216 -0.12381252 202.49079329 -0.12911195 C208.18626399 -0.09455877 208.18626399 -0.09455877 210.41453552 2.13371277 C210.67180443 4.8266573 210.67180443 4.8266573 210.68196106 8.32299805 C210.68649217 8.96481937 210.69102329 9.60664069 210.6956917 10.26791114 C210.70839896 12.4287356 210.70671124 14.58931004 210.70506287 16.75016785 C210.71104475 18.29585598 210.71784951 19.84154111 210.72541809 21.38722229 C210.74313389 25.59653605 210.7477762 29.80576855 210.74904966 34.01511598 C210.75047028 36.64815445 210.75473847 39.28117222 210.7600441 41.91420555 C210.77857263 51.11035346 210.78671241 60.3064433 210.78514099 69.50260925 C210.78394332 78.0548669 210.8049644 86.60687063 210.83662832 95.15906411 C210.86287222 102.51127578 210.87350469 109.86340505 210.87223017 117.21566314 C210.87172231 121.60193295 210.87730562 125.98797792 210.89858627 130.37420082 C210.91810211 134.51029712 210.91800307 138.64595754 210.90355301 142.78207016 C210.90147924 144.29080919 210.9060792 145.79957642 210.91827393 147.30826759 C210.99044499 156.86547361 209.80246363 165.13057272 206.41453552 174.13371277 C205.75453552 174.13371277 205.09453552 174.13371277 204.41453552 174.13371277 C204.18766052 174.69058777 203.96078552 175.24746277 203.72703552 175.82121277 C200.35008485 181.77107824 194.66443275 186.01382498 188.25945854 188.22092628 C184.00144556 189.23178051 180.12606309 189.48420215 175.77076721 189.55079651 C174.93884377 189.57045605 174.10692033 189.59011559 173.24978709 189.61037087 C170.5159082 189.67160684 167.7820178 189.7184945 165.0478363 189.76408386 C163.1130441 189.8022327 161.17825576 189.8405781 159.24347115 189.87911034 C140.48184859 190.22965671 121.72500519 190.1990845 102.96151114 190.06610918 C98.34310329 190.0345121 93.72465805 190.00950476 89.10621643 189.9834137 C81.41110547 189.93895422 73.71603961 189.88952273 66.02098083 189.83683777 C57.12978519 189.77602611 48.23856767 189.72350044 39.3472966 189.67506945 C30.71610558 189.62787388 22.08495747 189.57510448 13.45381546 189.51971054 C9.80390857 189.49637945 6.153998 189.4750015 2.50407028 189.45520401 C-1.7563683 189.43184164 -6.01674681 189.40361843 -10.27712822 189.37151527 C-11.84091398 189.36052477 -13.40471278 189.3512437 -14.96851921 189.34375191 C-17.09196512 189.33330194 -19.21527679 189.31679956 -21.33866882 189.29866028 C-22.52816195 189.29090891 -23.71765507 189.28315754 -24.94319344 189.27517128 C-27.58546448 189.13371277 -27.58546448 189.13371277 -28.58546448 188.13371277 C-28.68901478 185.97267098 -28.72070053 183.80818358 -28.72590637 181.64466858 C-28.72887749 180.95863277 -28.73184862 180.27259695 -28.73490977 179.56577218 C-28.74363315 177.24970251 -28.7451081 174.93368431 -28.74659729 172.61759949 C-28.75122307 170.96380502 -28.7562474 169.31001162 -28.76164246 167.65621948 C-28.77479564 163.14975448 -28.78121761 158.64330439 -28.78565311 154.13682318 C-28.78858043 151.3220954 -28.79268469 148.50737174 -28.79715729 145.69264603 C-28.81084274 136.88856489 -28.82050305 128.0844931 -28.82435918 119.28040206 C-28.82883627 109.11361232 -28.84636352 98.94695726 -28.87535977 88.78020847 C-28.89698257 80.92621328 -28.90706386 73.07225596 -28.9084003 65.21823132 C-28.90944832 60.52589125 -28.91535499 55.83367762 -28.93321991 51.14136887 C-28.94970988 46.72385112 -28.9518516 42.30655468 -28.9430809 37.88901711 C-28.9423109 36.26971786 -28.94664841 34.65040669 -28.95653915 33.03113747 C-28.96927648 30.81538247 -28.96337271 28.60040905 -28.95295715 26.38465881 C-28.95442371 25.14614607 -28.95589027 23.90763332 -28.95740128 22.63158989 C-28.14482583 14.98972957 -24.20075276 9.23119782 -18.58546448 4.13371277 C-16.24653225 2.73898064 -14.2047483 1.9900171 -11.58546448 1.13371277 C-7.70802812 -0.15876602 -4.04087434 -0.00750115 0 0 Z M9.41453552 34.13371277 C2.85370902 47.25536578 8.41453552 63.46325871 8.41453552 78.13371277 C63.19453552 78.13371277 117.97453552 78.13371277 174.41453552 78.13371277 C174.41453552 62.95371277 174.41453552 47.77371277 174.41453552 32.13371277 C172.59338189 30.31255913 169.7390958 30.99951946 167.29167175 30.99327087 C166.64506033 30.99029975 165.99844891 30.98732863 165.3322432 30.98426747 C163.14970019 30.97554536 160.96721181 30.97406927 158.78465271 30.97257996 C157.22613405 30.96795417 155.66761653 30.96292984 154.10910034 30.95753479 C149.86309192 30.94438353 145.61709934 30.93796025 141.37107372 30.93352413 C138.7198509 30.93059709 136.06863244 30.92649294 133.4174118 30.92201996 C125.12698122 30.9083363 116.83656055 30.89867456 108.54611945 30.89481807 C98.96793143 30.89033852 89.38988619 30.87279907 79.81174159 30.84381747 C72.41467392 30.82221075 65.01764644 30.81211429 57.62054753 30.81077695 C53.19990004 30.80972796 48.77938661 30.80380066 44.35877228 30.78595734 C40.19898016 30.76949461 36.03942312 30.76731234 31.87961006 30.77609634 C30.35299869 30.77686776 28.82637479 30.77251029 27.29979515 30.76263809 C25.21469415 30.74994541 23.13042901 30.75577998 21.04533386 30.76622009 C19.87872097 30.76475353 18.71210808 30.76328697 17.51014328 30.76177597 C14.0640357 31.17582527 12.18029776 32.07101077 9.41453552 34.13371277 Z M8.41453552 109.13371277 C8.41453552 124.97371277 8.41453552 140.81371277 8.41453552 157.13371277 C29.20686315 157.17883802 49.99915121 157.21568935 70.79151535 157.23733711 C80.44549562 157.24765514 90.09944333 157.26172553 99.75340271 157.28459167 C108.1665716 157.30450943 116.57971691 157.31742537 124.99290872 157.32188976 C129.4487247 157.32449987 133.90447324 157.33064572 138.36026764 157.34517288 C142.55282821 157.35873129 146.74529343 157.36293894 150.93787384 157.35992813 C152.47780373 157.36047907 154.01773675 157.3644669 155.55764771 157.37212372 C157.65831569 157.38205783 159.75862255 157.37968742 161.85929871 157.3742218 C163.03550655 157.37606539 164.2117144 157.37790897 165.42356491 157.37980843 C168.38952106 157.13577095 170.01356645 156.8623459 172.41453552 155.13371277 C179.27828895 141.40620591 174.41453552 124.48153201 174.41453552 109.13371277 C119.63453552 109.13371277 64.85453552 109.13371277 8.41453552 109.13371277 Z " fill="#fa520f" transform="translate(157.58546447753906,176.8662872314453)"/>
<path d="M0 0 C0.84909583 -0.00384115 1.69819165 -0.00768229 2.57301766 -0.01163983 C3.50092942 -0.01077335 4.42884118 -0.00990687 5.38487148 -0.00901413 C6.37439216 -0.01198525 7.36391283 -0.01495637 8.38341898 -0.01801753 C11.70832877 -0.02670851 15.03320257 -0.0282131 18.35812283 -0.02970505 C20.7380522 -0.03433278 23.11798083 -0.03935738 25.49790859 -0.04475021 C31.96873986 -0.05787688 38.43956423 -0.06435578 44.91040635 -0.06876087 C48.9494469 -0.071524 52.98848506 -0.07576136 57.02752399 -0.08026505 C68.20785433 -0.09245376 79.38818276 -0.10275543 90.56851959 -0.10614014 C91.64141972 -0.10646949 91.64141972 -0.10646949 92.7359946 -0.10680549 C93.45297324 -0.10702377 94.16995187 -0.10724204 94.90865713 -0.10746694 C96.36153893 -0.1079104 97.81442072 -0.10835697 99.26730251 -0.10880661 C99.98798235 -0.10902804 100.70866219 -0.10924947 101.45118081 -0.10947761 C113.14040839 -0.11342943 124.82957378 -0.1308969 136.51877732 -0.15416613 C148.51626258 -0.17785671 160.5137166 -0.19034086 172.51122564 -0.19150805 C179.24899907 -0.19242585 185.98669136 -0.1982048 192.72444248 -0.21632767 C199.05683732 -0.23273729 205.38907765 -0.2349986 211.72148609 -0.22618866 C214.05037886 -0.22541457 216.3792797 -0.22980953 218.70815182 -0.23964691 C221.87751574 -0.25225375 225.04632298 -0.24655129 228.21568203 -0.23606491 C229.14582451 -0.24412132 230.075967 -0.25217772 231.03429562 -0.26047826 C231.8807837 -0.25388841 232.72727178 -0.24729857 233.59941101 -0.24050903 C234.33124212 -0.24110612 235.06307323 -0.24170321 235.81708103 -0.24231839 C238.25872477 0.23304396 239.16293233 1.25921366 240.73678493 3.13142776 C238.99810873 9.36521804 236.8894707 14.12690902 232.73678493 19.13142776 C232.07678493 19.13142776 231.41678493 19.13142776 230.73678493 19.13142776 C230.73678493 19.79142776 230.73678493 20.45142776 230.73678493 21.13142776 C228.97897243 22.56892776 228.97897243 22.56892776 226.61178493 24.13142776 C225.84608181 24.64705276 225.08037868 25.16267776 224.29147243 25.69392776 C218.10736381 29.17367084 212.60297112 29.41657158 205.68287563 29.37866592 C204.67390077 29.38108034 203.66492591 29.38349476 202.62537605 29.38598233 C199.24667489 29.39161526 195.86816313 29.38295926 192.48947048 29.37434769 C190.06659297 29.37542064 187.6437157 29.37735951 185.2208395 29.38010025 C179.32575645 29.38444503 173.43072444 29.37951033 167.53565111 29.37024995 C160.67378478 29.35985849 153.81193056 29.35993631 146.95005784 29.36042253 C134.71220696 29.36092284 122.47438224 29.35176819 110.23654079 29.33723831 C98.35274689 29.32313605 86.468976 29.31606822 74.58517361 29.3167305 C73.85251444 29.31677046 73.11985527 29.31681041 72.36499431 29.31685158 C71.2679293 29.31691211 71.2679293 29.31691211 70.14870137 29.31697387 C56.62582191 29.31766286 43.10295226 29.31178051 29.58007598 29.30282065 C24.79249048 29.29979969 20.00490678 29.29874056 15.21732044 29.29828835 C8.783167 29.29753684 2.34903308 29.29121303 -4.08511257 29.28112221 C-6.45354278 29.2781891 -8.8219758 29.27697347 -11.19040775 29.27754974 C-14.40837284 29.27803665 -17.62626851 29.27242244 -20.84422398 29.26514053 C-22.26947556 29.26746344 -22.26947556 29.26746344 -23.7235201 29.26983327 C-30.14903615 29.24560667 -30.14903615 29.24560667 -31.26321507 28.13142776 C-30.92943277 20.12065266 -27.34017 13.75044065 -21.51321507 8.31892776 C-15.35815157 3.29462404 -8.00439659 0.01363053 0 0 Z " fill="#fa520f" transform="translate(144.26321506500244,118.86857223510742)"/>
</svg>
