<svg xmlns="http://www.w3.org/2000/svg" viewBox="48 59 511 308" preserveAspectRatio="xMidYMid meet">

<g transform="translate(0.000000,390.000000) scale(0.100000,-0.100000)"
fill="#000000" stroke="none">
<path d="M4858 3188 c-83 -58 -87 -60 -121 -49 -31 11 -45 8 -119 -19 -71 -27
-91 -41 -141 -93 -77 -81 -82 -91 -57 -115 19 -18 16 -21 -222 -188 -132 -93
-244 -170 -247 -172 -4 -1 -89 90 -190 202 -112 126 -192 207 -207 210 -14 4
-33 1 -44 -7 -11 -7 -101 -92 -201 -187 -134 -129 -184 -171 -194 -164 -8 5
-107 114 -220 242 -179 202 -209 232 -234 232 -25 0 -64 -36 -264 -240 -128
-132 -238 -240 -242 -240 -5 0 -88 79 -186 175 -141 140 -182 175 -203 175
-23 0 -92 -65 -404 -382 -207 -211 -474 -482 -594 -603 -119 -121 -221 -231
-226 -246 -10 -25 -1 -56 22 -71 42 -29 49 -22 632 571 l569 578 187 -178
c103 -99 193 -179 200 -179 29 1 65 34 278 253 122 125 225 227 229 227 5 0
135 -144 290 -320 262 -296 285 -320 315 -320 41 0 71 30 63 62 -4 13 -31 53
-62 88 -30 35 -54 67 -53 70 6 14 323 310 330 308 4 -2 73 -77 154 -167 131
-145 146 -165 131 -176 -19 -14 -23 -45 -6 -45 6 0 19 5 30 11 15 8 24 7 36
-2 13 -12 12 -16 -13 -36 -22 -17 -26 -25 -17 -34 9 -9 19 -9 43 1 30 12 33
11 74 -29 45 -44 83 -53 110 -25 23 23 20 62 -9 100 l-25 33 62 35 c35 19 131
71 213 115 l150 81 3 -42 c4 -49 16 -68 44 -68 11 0 28 -10 37 -22 34 -42 94
-2 111 75 l7 32 39 -44 c162 -183 201 -210 356 -250 36 -9 72 -22 80 -27 7 -6
49 -25 93 -43 79 -31 80 -31 105 -13 55 41 94 165 88 279 l-3 58 -55 12 c-30
7 -76 12 -103 11 -78 -2 -110 31 -175 188 -71 172 -69 159 -33 174 35 14 39
34 12 69 l-19 24 -43 -25 -43 -26 -53 26 c-29 14 -53 29 -53 33 0 4 29 26 65
49 l65 43 -17 30 c-10 17 -23 32 -28 33 -6 2 -49 -24 -97 -58z m-118 -76 c0
-15 -150 -112 -173 -112 -29 0 -54 -18 -70 -50 -14 -27 -43 -38 -59 -22 -7 7
7 30 44 73 42 46 71 68 119 89 61 27 139 39 139 22z m155 -64 c25 -12 45 -25
45 -29 0 -4 -36 -28 -80 -54 l-81 -47 -47 17 c-26 10 -51 21 -55 25 -8 7 140
110 160 110 7 0 33 -10 58 -22z m-227 -109 c53 -23 126 -63 162 -89 77 -56 95
-63 121 -50 29 16 23 30 -10 24 -21 -5 -38 0 -60 16 -17 12 -29 25 -26 30 3 5
39 27 80 48 53 28 77 36 84 28 5 -6 32 -67 61 -136 54 -133 81 -170 142 -197
37 -17 38 -18 38 -72 0 -74 -15 -126 -48 -162 l-27 -31 -70 16 c-39 9 -105 30
-147 47 -79 32 -121 68 -221 192 -21 26 -48 49 -61 53 -13 3 -28 16 -35 30 -6
13 -15 24 -21 24 -13 0 -13 -6 1 -32 19 -35 13 -87 -12 -114 -12 -13 -26 -24
-30 -24 -16 0 -19 40 -6 67 8 15 20 54 27 86 11 53 29 77 58 77 6 0 33 -20 60
-45 35 -32 55 -60 66 -93 27 -80 129 -193 153 -168 4 4 -1 12 -12 19 -40 22
-79 74 -116 153 -41 89 -63 109 -207 194 -74 43 -92 63 -92 99 0 20 24 51 41
51 5 0 53 -19 107 -41z m-136 -109 c-3 -33 -30 -60 -59 -60 -34 0 -31 42 5 69
35 27 58 23 54 -9z m51 -7 c8 -7 -11 -33 -23 -33 -5 0 -6 9 -3 20 5 20 15 25
26 13z m-153 -49 c0 -8 7 -17 15 -20 8 -4 15 -10 15 -14 0 -14 -440 -262 -455
-256 -8 3 -15 12 -15 21 0 17 419 297 432 289 4 -3 8 -12 8 -20z m151 -96 c-8
-52 -34 -98 -56 -98 -19 0 -27 32 -19 75 5 28 14 40 43 54 20 11 37 18 37 18
1 -1 -1 -23 -5 -49z m784 -83 c25 -4 49 -14 52 -21 3 -8 0 -51 -6 -96 -11 -85
-51 -185 -77 -195 -16 -6 -134 35 -134 47 0 4 9 15 21 26 38 34 59 91 66 175
4 57 10 79 18 75 7 -2 34 -8 60 -11z"/>
<path d="M4992 2224 c-18 -12 -22 -25 -22 -64 l0 -48 -217 -4 c-237 -4 -262
-9 -316 -64 -65 -65 -62 -31 -65 -686 l-3 -597 23 -20 c28 -26 62 -27 88 -1
20 20 20 33 20 568 0 301 5 565 10 587 18 78 -5 75 514 75 l463 0 21 23 c37
40 24 87 -29 106 -19 6 -105 11 -205 11 l-174 0 0 45 c0 72 -54 107 -108 69z"/>
<path d="M1356 2089 c-40 -32 -34 -79 15 -104 23 -12 83 -15 320 -15 l292 0
-79 -82 -79 -83 -92 -7 c-133 -10 -205 -48 -251 -133 -25 -44 -31 -709 -8
-788 17 -59 59 -107 120 -140 40 -21 51 -22 391 -22 269 0 359 3 388 14 50 17
103 64 130 115 22 40 22 49 22 411 0 360 -1 371 -22 410 -27 51 -68 89 -118
111 -31 14 -76 19 -199 22 l-158 4 83 84 84 84 191 0 c108 0 204 5 221 10 55
20 64 93 14 119 -13 8 -219 11 -629 11 -601 0 -610 0 -636 -21z m1006 -457
c23 -22 23 -24 26 -365 2 -325 1 -344 -17 -374 -14 -22 -30 -34 -53 -38 -18
-3 -176 -5 -351 -3 l-319 3 -24 28 -24 28 0 342 c0 369 1 376 54 397 11 5 171
8 353 7 331 -2 333 -2 355 -25z"/>
<path d="M1737 1312 c-23 -25 -21 -68 3 -92 19 -19 33 -20 255 -20 228 0 235
1 255 22 25 28 26 62 0 88 -19 19 -33 20 -258 20 -219 0 -240 -2 -255 -18z"/>
<path d="M3282 2067 c-115 -96 -383 -354 -388 -373 -11 -45 36 -91 81 -80 13
3 108 85 212 181 l188 174 226 1 c124 0 229 -3 233 -7 4 -4 -80 -94 -186 -200
l-192 -192 -72 69 c-76 74 -101 83 -142 54 -15 -10 -22 -25 -22 -47 0 -27 12
-45 70 -102 l70 -69 -270 -271 c-233 -234 -270 -276 -270 -302 0 -35 36 -73
70 -73 17 0 63 39 162 137 l138 137 0 -107 c0 -154 26 -206 125 -253 48 -23
59 -24 286 -24 267 0 302 7 363 67 52 52 61 88 61 243 0 143 -8 173 -59 228
-48 54 -64 57 -319 62 l-239 5 264 271 c145 149 272 287 281 306 23 48 21 93
-3 133 -38 61 -58 65 -358 65 l-270 0 -40 -33z m556 -883 c39 -11 52 -53 52
-167 0 -90 -3 -108 -21 -131 l-20 -26 -240 0 c-223 0 -240 1 -258 19 -27 27
-34 75 -29 178 4 79 7 88 32 110 27 23 31 23 244 23 119 0 227 -3 240 -6z"/>
<path d="M4987 1852 c-14 -16 -17 -53 -19 -273 l-3 -254 -87 -5 c-76 -5 -92
-9 -129 -35 -23 -17 -53 -50 -66 -74 -21 -40 -23 -57 -23 -183 0 -189 20 -235
125 -284 48 -23 59 -24 286 -24 267 0 298 6 361 67 54 53 63 87 63 243 -1 143
-9 173 -59 228 -42 47 -74 56 -206 62 l-125 5 -3 98 -3 97 180 0 c99 0 191 4
205 10 47 17 47 97 1 118 -17 8 -90 12 -205 12 l-180 0 0 88 c0 73 -3 92 -18
105 -24 22 -75 22 -95 -1z m326 -671 c38 -15 49 -57 45 -174 -5 -156 13 -147
-280 -147 -222 0 -239 1 -257 19 -27 27 -34 75 -29 178 4 79 7 88 32 110 27
23 31 23 246 23 120 0 230 -4 243 -9z"/>
<path d="M1640 405 l0 -115 25 0 c23 0 25 4 25 45 l0 45 50 0 50 0 0 -45 c0
-41 2 -45 25 -45 l25 0 0 116 c0 114 0 115 -22 112 -19 -2 -24 -10 -26 -45
l-3 -43 -50 0 -49 0 0 45 c0 41 -2 45 -25 45 l-25 0 0 -115z"/>
<path d="M2000 512 c0 -4 16 -31 35 -59 30 -44 35 -61 35 -108 0 -52 1 -55 25
-55 23 0 25 3 25 51 0 42 6 59 40 109 22 32 40 61 40 64 0 4 -12 6 -27 6 -21
0 -34 -9 -52 -37 l-24 -37 -21 37 c-16 28 -27 37 -48 37 -16 0 -28 -3 -28 -8z"/>
<path d="M2410 516 c0 -2 -18 -54 -40 -115 l-39 -111 28 0 c22 0 30 6 35 25 6
22 12 25 51 25 39 0 47 -3 55 -25 7 -18 17 -25 35 -25 31 0 32 -4 -24 132 -35
88 -39 93 -69 96 -18 2 -32 1 -32 -2z m60 -132 c0 -8 -10 -14 -25 -14 -28 0
-30 11 -14 60 l12 32 13 -32 c8 -18 14 -39 14 -46z"/>
<path d="M2710 405 l0 -115 24 0 c23 0 25 4 28 53 l3 52 40 -52 c31 -42 45
-53 67 -53 15 0 28 2 28 5 0 3 -19 31 -41 61 l-42 54 32 51 c17 28 31 52 31
55 0 2 -11 4 -25 4 -20 0 -33 -11 -58 -52 l-32 -52 -3 52 c-3 48 -5 52 -28 52
l-24 0 0 -115z"/>
<path d="M3052 429 c3 -85 5 -92 31 -115 20 -17 40 -24 68 -24 79 0 109 45
109 168 0 60 -1 62 -25 62 -24 0 -25 -3 -25 -59 0 -70 -16 -121 -38 -122 -59
-4 -72 16 -72 108 0 72 0 73 -26 73 l-26 0 4 -91z"/>
<path d="M3430 405 l0 -115 25 0 c24 0 25 2 25 68 l1 67 26 -33 27 -34 32 39
33 38 1 -72 c0 -71 1 -73 25 -73 l25 0 0 115 c0 112 -1 115 -22 115 -14 0 -36
-16 -58 -42 l-36 -41 -34 41 c-18 23 -42 42 -52 42 -16 0 -18 -10 -18 -115z"/>
<path d="M3820 405 l0 -115 75 0 c68 0 75 2 75 20 0 17 -7 20 -50 20 -49 0
-50 1 -50 30 0 29 2 30 45 30 38 0 45 3 45 20 0 17 -7 20 -45 20 -41 0 -45 2
-45 25 0 23 3 25 50 25 43 0 50 3 50 20 0 18 -7 20 -75 20 l-75 0 0 -115z"/>
<path d="M4130 405 l0 -115 25 0 25 0 0 115 0 115 -25 0 -25 0 0 -115z"/>
<path d="M4340 501 c0 -16 8 -20 38 -23 l37 -3 3 -92 c3 -91 3 -93 27 -93 25
0 25 1 25 95 l0 95 35 0 c28 0 35 4 35 20 0 19 -7 20 -100 20 -92 0 -100 -1
-100 -19z"/>
<path d="M4700 405 l0 -115 75 0 c68 0 75 2 75 20 0 17 -7 20 -50 20 -49 0
-50 1 -50 30 0 29 2 30 45 30 38 0 45 3 45 20 0 17 -7 20 -45 20 -41 0 -45 2
-45 25 0 23 3 25 50 25 43 0 50 3 50 20 0 18 -7 20 -75 20 l-75 0 0 -115z"/>
<path d="M5010 405 l0 -115 25 0 c23 0 24 3 27 73 l3 72 55 -72 c39 -51 62
-72 78 -72 22 -1 22 1 22 114 l0 115 -25 0 c-23 0 -24 -3 -27 -67 l-3 -68 -54
68 c-39 48 -61 67 -78 67 -23 0 -23 -1 -23 -115z"/>
</g>
</svg>